<svg width="331" height="338" viewBox="0 0 331 338" fill="none" xmlns="http://www.w3.org/2000/svg">
<path d="M135.422 298.027C135.372 301.487 140.134 305.639 140.134 305.639C140.134 305.639 146.534 313.927 144.173 299.284C141.812 284.641 166.115 211.848 194.532 191.225C222.949 170.603 335.232 153.712 318.381 121.817C301.53 89.921 276.275 66.787 264.472 68.125C252.669 69.4631 220.275 114.654 220.275 114.654C220.275 114.654 247.815 56.6292 234.902 43.9376C221.99 31.246 153.982 38.3774 150.676 58.2741C147.37 78.1708 183.995 174.457 171.431 209.06C158.867 243.664 135.473 294.566 135.422 298.027Z" fill="#8EAB7D"/>
<path d="M179.86 325.388C179.079 329.342 172.812 332.909 172.812 332.909C172.812 332.909 163.734 340.788 169.885 324.682C176.036 308.576 166.783 219.702 140.364 189.262C113.946 158.823 -6.06383 112.144 20.2748 79.9217C46.6135 47.6994 80.1209 27.5129 92.8416 31.9212C105.562 36.3295 130.434 95.732 130.434 95.732C130.434 95.732 114.031 22.8935 131.372 11.5886C148.713 0.283645 222.15 25.0256 220.991 48.5024C219.832 71.9791 156.066 172.732 161.582 215.227C167.098 257.722 180.641 321.433 179.86 325.388Z" fill="#6EE028" fill-opacity="0.76"/>
</svg>
